<?xml version="1.0" standalone="no"?>
<!DOCTYPE svg PUBLIC "-//W3C//DTD SVG 20010904//EN"
 "http://www.w3.org/TR/2001/REC-SVG-20010904/DTD/svg10.dtd">
<svg version="1.0" xmlns="http://www.w3.org/2000/svg"
 width="700.000000pt" height="700.000000pt" viewBox="0 0 700.000000 700.000000"
 preserveAspectRatio="xMidYMid meet">
<metadata>
Created by potrace 1.11, written by Peter Selinger 2001-2013
</metadata>
<g transform="translate(0.000000,700.000000) scale(0.100000,-0.100000)"
fill="#000000" stroke="none">
<path d="M3130 6435 c-129 -36 -256 -126 -321 -227 -19 -29 -137 -319 -269
-657 l-236 -606 -484 -5 c-472 -5 -487 -6 -545 -27 -148 -57 -270 -177 -326
-322 -31 -79 -38 -245 -14 -327 52 -183 203 -333 380 -379 46 -11 117 -15 312
-15 139 0 253 -4 253 -8 0 -4 -62 -167 -138 -362 l-138 -355 -504 -6 c-372 -4
-516 -9 -545 -18 -261 -84 -427 -340 -387 -598 18 -117 67 -210 155 -298 73
-73 117 -101 217 -138 50 -18 83 -21 348 -25 217 -3 292 -7 289 -15 -89 -222
-311 -803 -323 -842 -26 -91 -21 -215 13 -310 63 -178 179 -290 357 -344 186
-57 405 4 540 150 31 33 66 79 78 102 12 23 128 314 258 647 l235 605 553 3
c303 1 552 0 552 -2 0 -2 -75 -197 -167 -433 l-166 -428 -5 -102 c-4 -84 -1
-113 17 -172 69 -227 251 -375 481 -388 108 -7 180 8 279 58 90 45 190 142
230 224 14 28 129 318 257 645 l231 595 524 5 c505 5 526 6 589 27 169 57 302
197 354 372 20 68 21 207 1 280 -44 166 -172 304 -341 369 -68 26 -72 26 -387
30 -239 3 -317 6 -314 15 3 7 67 171 142 365 l138 352 542 0 c594 0 585 -1
709 62 78 39 185 149 225 230 33 67 61 178 61 243 0 233 -177 460 -405 520
-47 12 -125 15 -388 15 -259 0 -328 3 -324 13 111 271 313 812 324 867 39 186
-44 398 -202 517 -219 166 -512 146 -705 -47 -36 -36 -75 -86 -88 -110 -13
-25 -128 -313 -255 -640 l-232 -595 -554 -3 c-441 -2 -552 0 -548 10 2 7 74
193 160 413 161 416 183 492 171 592 -28 222 -164 395 -365 464 -84 28 -223
35 -299 14z m1010 -2572 c0 -5 -61 -169 -137 -365 l-138 -358 -552 0 c-304 0
-553 2 -553 4 0 3 250 648 277 714 4 9 124 12 554 12 302 0 549 -3 549 -7z"/>
</g>
</svg>
